<svg width="1280" height="217" fill="none" xmlns="http://www.w3.org/2000/svg"><g clip-path="url(#clip0)" fill="#d82316"><path d="M50.639 3.453H0v210.61h40.856v-78.259h9.782c22.443 0 37.98-7.481 48.337-23.018 8.056-12.084 9.207-24.743 9.207-43.157 0-25.895-4.028-39.13-14.961-50.64C82.863 8.058 69.628 3.454 50.638 3.454zm-.576 94.372h-9.207V40.857h10.358c17.263 0 18.414 8.056 18.414 28.772 0 21.866-1.15 28.196-19.565 28.196zM162.849 3.453h-40.856v210.035h92.645v-40.856h-51.789V3.453zM609.389 3.453H493.726v38.555h37.403v171.48h40.856V42.008h37.404V3.452zM791.227 0c-35.102 0-58.119 24.168-58.119 60.996 0 22.443 4.603 44.885 36.828 56.969l21.866 8.631c12.085 4.604 14.386 5.179 14.386 25.895 0 19.565-2.302 24.744-16.687 24.744-13.811 0-16.113-9.783-16.113-15.537v-14.386h-41.431v16.112c0 30.498 24.744 53.516 57.544 53.516 26.47 0 58.119-11.509 58.119-65.024 0-31.074-5.755-50.064-35.677-60.421l-23.593-8.632c-13.235-5.179-13.811-8.056-13.811-21.867 0-18.414 7.481-20.715 15.537-20.715 10.933 0 16.112 6.33 16.112 18.99v12.083h41.432v-20.14C847.62 26.47 826.329 0 791.227 0zM985.725 213.488h100.705v-40.856h-59.85v-46.035h51.79v-37.98h-51.79v-46.61h59.85V3.453H985.725v210.035zM1256.76 216.94c-12.66 0-23.6-10.358-23.6-23.593 0-12.659 10.36-23.593 23.6-23.593 12.66 0 23.59 10.358 23.59 23.593-.58 13.235-10.93 23.593-23.59 23.593zm0-42.582c-10.94 0-19.57 8.631-19.57 19.565 0 10.933 8.63 19.565 19.57 19.565 10.93 0 19.56-8.632 19.56-19.565-.57-10.934-9.21-19.565-19.56-19.565z"/><path d="M1248.12 204.856v-24.168h9.79c5.18 0 7.48 2.877 7.48 6.905 0 2.877-1.73 5.179-4.61 6.33l5.18 10.933h-5.18l-4.6-9.783h-4.03v9.783h-4.03zm4.61-13.235h3.45c3.45 0 4.6-1.151 4.6-3.453 0-2.302-1.15-3.452-4.02-3.452h-4.03v6.905zM858.553 161.698c0 36.253 27.046 55.242 54.092 55.242 27.045 0 54.091-18.989 54.091-55.242V3.453h-82.288v38.554h41.432v119.691c0 12.66-9.207 14.386-13.235 14.386-4.028 0-13.235-1.15-13.235-14.386v-14.385h-40.857v14.385zM268.154 3.453l-49.487 210.035h40.28l8.632-42.007h42.582l8.632 42.007h40.28L310.161 3.453h-42.007zm6.33 133.502l13.81-67.327h1.151l13.811 67.327h-28.772zM440.21 107.032h-.575L401.656 3.453h-36.253v210.035h40.856V109.334h1.151l37.979 104.154h36.252V3.453H440.21v103.579zM1176.77 107.032h-.58L1137.64 3.453h-35.68v210.035h40.86V109.334h1.15l37.98 104.154h35.68V3.453h-40.86v103.579zM641.038 3.453l-49.488 210.61h40.281l8.632-42.007h42.582l8.631 42.007h40.281L682.469 3.453h-41.431zm6.33 133.502l13.81-67.327h1.151l13.811 67.327h-28.772z"/></g><defs><clipPath id="clip0"><path fill="#fff" d="M0 0h1279.77v216.94H0z"/></clipPath></defs></svg>
